<svg viewBox="0 0 64 64" xmlns="http://www.w3.org/2000/svg"><defs><style>.cls-2{fill:#4f525c}</style></defs><path d="M13.75 57A6.85 6.85 0 019 55a6.74 6.74 0 01-2-4.77V13.75A6.75 6.75 0 0113.75 7h29.88m6.62 0A6.85 6.85 0 0155 9a6.74 6.74 0 012 4.77v36.5A6.75 6.75 0 0150.25 57H21" fill="none" stroke="#4f525c" stroke-linecap="round" stroke-linejoin="round" stroke-width="3" data-name="Layer 3" id="Layer_3"/><g data-name="2v" id="_2v"><path class="cls-2" d="M43.18 53.5H20.82A4.85 4.85 0 0116 48.65V31a1.5 1.5 0 011.5-1.5h29.03A1.5 1.5 0 0148 31v17.7a4.85 4.85 0 01-4.82 4.8zM19 32.45v16.2a1.85 1.85 0 001.85 1.85h22.33A1.85 1.85 0 0045 48.65v-16.2z"/><path class="cls-2" d="M46.53 32.45H41a1.5 1.5 0 01-1.5-1.5v-7.9c0-2.94-3.36-5.34-7.49-5.34s-7.49 2.4-7.49 5.34V31a1.5 1.5 0 01-1.5 1.5h-5.55A1.5 1.5 0 0116 31v-7.9c0-6.92 7.19-12.55 16-12.55s16 5.63 16 12.55V31a1.5 1.5 0 01-1.47 1.45zm-4-3H45v-6.4c0-5.26-5.85-9.55-13-9.55s-13 4.29-13 9.55v6.4h2.54v-6.4c0-4.6 4.7-8.34 10.49-8.34s10.49 3.74 10.49 8.34zM32.7 47.18h-1.4a3.7 3.7 0 01-3.63-4.51l.49-2.27A3.7 3.7 0 0127 37.79c0-2.28 2.23-4.13 5-4.13s5 1.85 5 4.13a3.7 3.7 0 01-1.12 2.61l.49 2.27a3.7 3.7 0 01-3.63 4.51zM32 36.66c-1.1 0-2 .61-2 1.13a1 1 0 00.58.75 1.5 1.5 0 01.67 1.6l-.69 3.17a.72.72 0 00.7.87h1.4a.72.72 0 00.7-.87l-.69-3.17a1.5 1.5 0 01.67-1.6 1 1 0 00.58-.75c.08-.52-.82-1.13-1.92-1.13z"/></g></svg>