<svg viewBox="0 0 64 64" xmlns="http://www.w3.org/2000/svg"><defs><style>.cls-2{fill:#4f525c}</style></defs><path d="M13.75 57A6.85 6.85 0 019 55a6.74 6.74 0 01-2-4.77V13.75A6.75 6.75 0 0113.75 7h29.88m6.62 0A6.85 6.85 0 0155 9a6.74 6.74 0 012 4.77v36.5A6.75 6.75 0 0150.25 57H21" fill="none" stroke="#4f525c" stroke-linecap="round" stroke-linejoin="round" stroke-width="3" data-name="Layer 3" id="Layer_3"/><g data-name="16" id="_16"><path class="cls-2" d="M32 53.5A21.28 21.28 0 0111 32a21.28 21.28 0 0121-21.5A21.28 21.28 0 0153 32a21.28 21.28 0 01-21 21.5zm0-40A18.27 18.27 0 0014 32a18.27 18.27 0 0018 18.5A18.27 18.27 0 0050 32a18.27 18.27 0 00-18-18.5z"/><path class="cls-2" d="M27.21 39.62a1.47 1.47 0 01-.91-.31 1.5 1.5 0 01-.28-2.1l4.52-5.9 4-11.72a1.5 1.5 0 012.84 1l-4.06 12a1.44 1.44 0 01-.23.42L28.4 39a1.48 1.48 0 01-1.19.62zM32 20.86a1.5 1.5 0 01-1.5-1.5v-7a1.5 1.5 0 113 0v7a1.5 1.5 0 01-1.5 1.5zm0 32.31a1.5 1.5 0 01-1.5-1.5v-7a1.5 1.5 0 013 0v7a1.5 1.5 0 01-1.5 1.5zM19.42 33.5H12.5a1.5 1.5 0 010-3h6.92a1.5 1.5 0 010 3zm31.79 0h-6.92a1.5 1.5 0 110-3h6.92a1.5 1.5 0 110 3z"/></g></svg>