<svg viewBox="0 0 64 64" xmlns="http://www.w3.org/2000/svg"><defs><style>.cls-2{fill:#4f525c}</style></defs><path d="M13.75 57A6.85 6.85 0 019 55a6.74 6.74 0 01-2-4.77V13.75A6.75 6.75 0 0113.75 7h29.88m6.62 0A6.85 6.85 0 0155 9a6.74 6.74 0 012 4.77v36.5A6.75 6.75 0 0150.25 57H21" fill="none" stroke="#4f525c" stroke-linecap="round" stroke-linejoin="round" stroke-width="3" data-name="Layer 3" id="Layer_3"/><g data-name="6" id="_6"><path class="cls-2" d="M48 53.5H20a4.64 4.64 0 01-4.63-4.63V15.13A4.64 4.64 0 0120 10.5h28a4.64 4.64 0 014.63 4.63v33.74A4.64 4.64 0 0148 53.5zm-28-40a1.63 1.63 0 00-1.63 1.63v33.74A1.63 1.63 0 0020 50.5h28a1.63 1.63 0 001.63-1.63V15.13A1.63 1.63 0 0048 13.5z"/><path class="cls-2" d="M35.14 33.31a7.5 7.5 0 117.5-7.5 7.51 7.51 0 01-7.5 7.5zm0-12a4.5 4.5 0 104.5 4.5 4.51 4.51 0 00-4.5-4.5zm10.38 27.05H24.76a1.5 1.5 0 01-1.5-1.5v-4c0-4 2.83-7.67 7.2-9.25a1.51 1.51 0 011.16.05 8.5 8.5 0 007.05 0 1.48 1.48 0 011.15-.05c4.38 1.58 7.2 5.21 7.2 9.25v4a1.5 1.5 0 01-1.5 1.5zm-19.26-3H44v-2.45c0-2.6-1.82-5-4.68-6.22a11.57 11.57 0 01-8.39 0c-2.87 1.23-4.69 3.62-4.69 6.22zm-6.55-26.15h-5.85a1.5 1.5 0 010-3h5.85a1.5 1.5 0 010 3zm0 5.72h-5.85a1.5 1.5 0 010-3h5.85a1.5 1.5 0 010 3zm0 5.71h-5.85a1.5 1.5 0 010-3h5.85a1.5 1.5 0 010 3zm0 5.72h-5.85a1.5 1.5 0 010-3h5.85a1.5 1.5 0 010 3zm0 5.71h-5.85a1.5 1.5 0 010-3h5.85a1.5 1.5 0 010 3zm0 5.72h-5.85a1.5 1.5 0 010-3h5.85a1.5 1.5 0 010 3z"/></g></svg>