<svg viewBox="0 0 64 64" xmlns="http://www.w3.org/2000/svg"><defs><style>.cls-2{fill:#4f525c}</style></defs><path d="M13.75 57A6.85 6.85 0 019 55a6.74 6.74 0 01-2-4.77V13.75A6.75 6.75 0 0113.75 7h29.88m6.62 0A6.85 6.85 0 0155 9a6.74 6.74 0 012 4.77v36.5A6.75 6.75 0 0150.25 57H21" fill="none" stroke="#4f525c" stroke-linecap="round" stroke-linejoin="round" stroke-width="3" data-name="Layer 3" id="Layer_3"/><g data-name="8" id="_8"><path class="cls-2" d="M32.07 48.8a1.5 1.5 0 01-1.07-.44L15.14 32.49a10.13 10.13 0 0114.32-14.32l2.61 2.6 2.6-2.6A10.13 10.13 0 0149 32.49L33.13 48.36a1.52 1.52 0 01-1.06.44zM22.3 18.2a7.13 7.13 0 00-5 12.17l14.77 14.81 14.8-14.81a7.13 7.13 0 10-10.08-10.08L33.13 24A1.49 1.49 0 0131 24l-3.67-3.66a7.1 7.1 0 00-5.03-2.14z"/><path class="cls-2" d="M33.54 39.71a1.72 1.72 0 01-.32 0 2.61 2.61 0 01-2.25-2l-2-8-1.39 3.07a1.51 1.51 0 01-1.37.88H12.5a1.5 1.5 0 010-3h12.74l1.41-3.13a2.64 2.64 0 015 .45l2 8 2.82-5.34a1.51 1.51 0 011.33-.8h13.7a1.5 1.5 0 010 3H38.7l-2.83 5.46a2.63 2.63 0 01-2.33 1.41z"/></g></svg>