<?xml version="1.0" ?><svg viewBox="0 0 64 64" xmlns="http://www.w3.org/2000/svg"><defs><style>.cls-1{fill:none;stroke:#4f525c;stroke-linecap:round;stroke-linejoin:round;stroke-width:3px;}.cls-2{fill:#4f525c;}</style></defs><title/><g data-name="Layer 3" id="Layer_3"><path class="cls-1" d="M13.75,57A6.85,6.85,0,0,1,9,55a6.74,6.74,0,0,1-2-4.77V13.75A6.75,6.75,0,0,1,13.75,7H43.63"/><path class="cls-1" d="M50.25,7A6.85,6.85,0,0,1,55,9a6.74,6.74,0,0,1,2,4.77v36.5A6.75,6.75,0,0,1,50.25,57H21"/></g><g data-name="2v" id="_2v"><path class="cls-2" d="M43.18,53.5H20.82A4.85,4.85,0,0,1,16,48.65V31a1.5,1.5,0,0,1,1.5-1.5H46.53A1.5,1.5,0,0,1,48,31v17.7A4.85,4.85,0,0,1,43.18,53.5ZM19,32.45v16.2a1.85,1.85,0,0,0,1.85,1.85H43.18A1.85,1.85,0,0,0,45,48.65V32.45Z"/><path class="cls-2" d="M46.53,32.45H41a1.5,1.5,0,0,1-1.5-1.5v-7.9c0-2.94-3.36-5.34-7.49-5.34s-7.49,2.4-7.49,5.34V31a1.5,1.5,0,0,1-1.5,1.5H17.47A1.5,1.5,0,0,1,16,31v-7.9c0-6.92,7.19-12.55,16-12.55s16,5.63,16,12.55V31A1.5,1.5,0,0,1,46.53,32.45Zm-4-3H45v-6.4c0-5.26-5.85-9.55-13-9.55s-13,4.29-13,9.55v6.4h2.54v-6.4c0-4.6,4.7-8.34,10.49-8.34s10.49,3.74,10.49,8.34Z"/><path class="cls-2" d="M32.7,47.18H31.3a3.7,3.7,0,0,1-3.63-4.51l.49-2.27A3.7,3.7,0,0,1,27,37.79c0-2.28,2.23-4.13,5-4.13s5,1.85,5,4.13a3.7,3.7,0,0,1-1.12,2.61l.49,2.27a3.7,3.7,0,0,1-3.63,4.51ZM32,36.66c-1.1,0-2,.61-2,1.13a1,1,0,0,0,.58.75,1.5,1.5,0,0,1,.67,1.6l-.69,3.17a.72.72,0,0,0,.7.87h1.4a.72.72,0,0,0,.7-.87l-.69-3.17a1.5,1.5,0,0,1,.67-1.6,1,1,0,0,0,.58-.75C34,37.27,33.1,36.66,32,36.66Z"/></g></svg>