<?xml version="1.0" ?><svg viewBox="0 0 64 64" xmlns="http://www.w3.org/2000/svg"><defs><style>.cls-1{fill:none;stroke:#4f525c;stroke-linecap:round;stroke-linejoin:round;stroke-width:3px;}.cls-2{fill:#4f525c;}</style></defs><title/><g data-name="Layer 3" id="Layer_3"><path class="cls-1" d="M13.75,57A6.85,6.85,0,0,1,9,55a6.74,6.74,0,0,1-2-4.77V13.75A6.75,6.75,0,0,1,13.75,7H43.63"/><path class="cls-1" d="M50.25,7A6.85,6.85,0,0,1,55,9a6.74,6.74,0,0,1,2,4.77v36.5A6.75,6.75,0,0,1,50.25,57H21"/></g><g data-name="16" id="_16"><path class="cls-2" d="M32,53.5A21.28,21.28,0,0,1,11,32,21.28,21.28,0,0,1,32,10.5,21.28,21.28,0,0,1,53,32,21.28,21.28,0,0,1,32,53.5Zm0-40A18.27,18.27,0,0,0,14,32,18.27,18.27,0,0,0,32,50.5,18.27,18.27,0,0,0,50,32,18.27,18.27,0,0,0,32,13.5Z"/><path class="cls-2" d="M27.21,39.62a1.47,1.47,0,0,1-.91-.31,1.5,1.5,0,0,1-.28-2.1l4.52-5.9,4-11.72a1.5,1.5,0,0,1,2.84,1l-4.06,12a1.44,1.44,0,0,1-.23.42L28.4,39A1.48,1.48,0,0,1,27.21,39.62Z"/><path class="cls-2" d="M32,20.86a1.5,1.5,0,0,1-1.5-1.5v-7a1.5,1.5,0,1,1,3,0v7A1.5,1.5,0,0,1,32,20.86Z"/><path class="cls-2" d="M32,53.17a1.5,1.5,0,0,1-1.5-1.5v-7a1.5,1.5,0,0,1,3,0v7A1.5,1.5,0,0,1,32,53.17Z"/><path class="cls-2" d="M19.42,33.5H12.5a1.5,1.5,0,0,1,0-3h6.92a1.5,1.5,0,0,1,0,3Z"/><path class="cls-2" d="M51.21,33.5H44.29a1.5,1.5,0,1,1,0-3h6.92a1.5,1.5,0,1,1,0,3Z"/></g></svg>