<?xml version="1.0" ?><svg viewBox="0 0 64 64" xmlns="http://www.w3.org/2000/svg"><defs><style>.cls-1{fill:none;stroke:#4f525c;stroke-linecap:round;stroke-linejoin:round;stroke-width:3px;}.cls-2{fill:#4f525c;}</style></defs><title/><g data-name="Layer 3" id="Layer_3"><path class="cls-1" d="M13.75,57A6.85,6.85,0,0,1,9,55a6.74,6.74,0,0,1-2-4.77V13.75A6.75,6.75,0,0,1,13.75,7H43.63"/><path class="cls-1" d="M50.25,7A6.85,6.85,0,0,1,55,9a6.74,6.74,0,0,1,2,4.77v36.5A6.75,6.75,0,0,1,50.25,57H21"/></g><g data-name="6" id="_6"><path class="cls-2" d="M48,53.5H20a4.64,4.64,0,0,1-4.63-4.63V15.13A4.64,4.64,0,0,1,20,10.5H48a4.64,4.64,0,0,1,4.63,4.63V48.87A4.64,4.64,0,0,1,48,53.5Zm-28-40a1.63,1.63,0,0,0-1.63,1.63V48.87A1.63,1.63,0,0,0,20,50.5H48a1.63,1.63,0,0,0,1.63-1.63V15.13A1.63,1.63,0,0,0,48,13.5Z"/><path class="cls-2" d="M35.14,33.31a7.5,7.5,0,1,1,7.5-7.5A7.51,7.51,0,0,1,35.14,33.31Zm0-12a4.5,4.5,0,1,0,4.5,4.5A4.51,4.51,0,0,0,35.14,21.31Z"/><path class="cls-2" d="M45.52,48.36H24.76a1.5,1.5,0,0,1-1.5-1.5v-4c0-4,2.83-7.67,7.2-9.25a1.51,1.51,0,0,1,1.16.05,8.5,8.5,0,0,0,7.05,0,1.48,1.48,0,0,1,1.15-.05c4.38,1.58,7.2,5.21,7.2,9.25v4A1.5,1.5,0,0,1,45.52,48.36Zm-19.26-3H44V42.91c0-2.6-1.82-5-4.68-6.22a11.57,11.57,0,0,1-8.39,0c-2.87,1.23-4.69,3.62-4.69,6.22Z"/><path class="cls-2" d="M19.71,19.21H13.86a1.5,1.5,0,0,1,0-3h5.85a1.5,1.5,0,0,1,0,3Z"/><path class="cls-2" d="M19.71,24.93H13.86a1.5,1.5,0,0,1,0-3h5.85a1.5,1.5,0,0,1,0,3Z"/><path class="cls-2" d="M19.71,30.64H13.86a1.5,1.5,0,0,1,0-3h5.85a1.5,1.5,0,0,1,0,3Z"/><path class="cls-2" d="M19.71,36.36H13.86a1.5,1.5,0,0,1,0-3h5.85a1.5,1.5,0,0,1,0,3Z"/><path class="cls-2" d="M19.71,42.07H13.86a1.5,1.5,0,0,1,0-3h5.85a1.5,1.5,0,0,1,0,3Z"/><path class="cls-2" d="M19.71,47.79H13.86a1.5,1.5,0,0,1,0-3h5.85a1.5,1.5,0,0,1,0,3Z"/></g></svg>