<?xml version="1.0" ?><svg viewBox="0 0 64 64" xmlns="http://www.w3.org/2000/svg"><defs><style>.cls-1{fill:none;stroke:#4f525c;stroke-linecap:round;stroke-linejoin:round;stroke-width:3px;}.cls-2{fill:#4f525c;}</style></defs><title/><g data-name="Layer 3" id="Layer_3"><path class="cls-1" d="M13.75,57A6.85,6.85,0,0,1,9,55a6.74,6.74,0,0,1-2-4.77V13.75A6.75,6.75,0,0,1,13.75,7H43.63"/><path class="cls-1" d="M50.25,7A6.85,6.85,0,0,1,55,9a6.74,6.74,0,0,1,2,4.77v36.5A6.75,6.75,0,0,1,50.25,57H21"/></g><g data-name="8" id="_8"><path class="cls-2" d="M32.07,48.8A1.5,1.5,0,0,1,31,48.36L15.14,32.49A10.13,10.13,0,0,1,29.46,18.17l2.61,2.6,2.6-2.6A10.13,10.13,0,0,1,49,32.49L33.13,48.36A1.52,1.52,0,0,1,32.07,48.8ZM22.3,18.2a7.13,7.13,0,0,0-5,12.17L32.07,45.18l14.8-14.81A7.13,7.13,0,1,0,36.79,20.29L33.13,24A1.49,1.49,0,0,1,31,24l-3.67-3.66A7.1,7.1,0,0,0,22.3,18.2Z"/><path class="cls-2" d="M33.54,39.71a1.72,1.72,0,0,1-.32,0,2.61,2.61,0,0,1-2.25-2l-2-8-1.39,3.07a1.51,1.51,0,0,1-1.37.88H12.5a1.5,1.5,0,0,1,0-3H25.24l1.41-3.13a2.64,2.64,0,0,1,5,.45l2,8,2.82-5.34a1.51,1.51,0,0,1,1.33-.8H51.5a1.5,1.5,0,0,1,0,3H38.7L35.87,38.3A2.63,2.63,0,0,1,33.54,39.71Z"/></g></svg>